# xmcd
#
# Track frame offsets:
#	150
#	13437
#	33280
#	50982
#	68115
#	82300
#	98875
#	122125
#	139535
#	170072
#	188897
#	202052
#	218225
#	237922
#	258807
#
# Disc length: 3734 seconds
#
# Revision: 2
# Processed by: cddbd v1.5.1PL2 Copyright (c) Steve Scherf et al.
# Submitted via: audiograbber 1.82.02
#
DISCID=e60e940f
DTITLE=Yuri - Mis 30 Mejores Canciones
DYEAR=1998
DGENRE=Latin
TTITLE0=Hombres Al Borde De Un Ataque De Celos
TTITLE1=Imposible Amarte Como Yo
TTITLE2=El Apagón
TTITLE3=No Puedo Más
TTITLE4=Embrujada (Estoy)
TTITLE5=Me Tienes Que Querer
TTITLE6=Todo Mi Corazón
TTITLE7=Quiero Volver A Empezar
TTITLE8=Celia Mix
TTITLE9=Poligamia
TTITLE10=Hola
TTITLE11=Quien Eres Tu
TTITLE12=Amiga Mia
TTITLE13=Detrás De Mi Ventana
TTITLE14=De Que Te Vale Fingir
EXTD=
EXTT0=
EXTT1=
EXTT2=
EXTT3=
EXTT4=
EXTT5=
EXTT6=
EXTT7=
EXTT8=
EXTT9=
EXTT10=
EXTT11=
EXTT12=
EXTT13=
EXTT14=
PLAYORDER=
